<svg xmlns="http://www.w3.org/2000/svg" viewBox="0 0 39 39" fill="none">
  <path fill="#00E676" d="M10.7 32.8l.6.3c2.5 1.5 5.3 2.2 8.1 2.2 8.8 0 16-7.2 16-16 0-4.2-1.7-8.3-4.7-11.3s-7-4.7-11.3-4.7c-8.8 0-16 7.2-15.9 16.1 0 3 .9 5.9 2.4 8.4l.4.6-1.5 5.5 5.9-1.1z"/>
  <path fill="#fff" d="M32.4 6.4C29 2.9 24.3 1 19.5 1 9.3 1 1.1 9.3 1.2 19.4c0 3.2.9 6.3 2.4 9.1L1 38l9.7-2.5c2.7 1.5 5.7 2.2 8.7 2.2 10.1 0 18.3-8.3 18.3-18.4 0-4.9-1.9-9.5-5.3-12.9zM19.5 34.6c-2.7 0-5.4-.7-7.7-2.1l-.6-.3-5.8 1.5 1.5-5.6-.4-.6c-1.5-2.4-2.3-5.2-2.3-8.1C4.2 11 11.3 4 19.5 4c4 0 7.7 1.6 10.5 4.4s4.4 6.5 4.4 10.5c.1 8.2-6.9 15.7-14.9 15.7z"/>
  <path fill="#fff" d="M28.3 23.5l-2.1-1c-.3-.1-.5-.2-.7.2-.2.3-.9 1.1-1.1 1.4-.2.2-.4.3-.7.1-.3-.2-1.4-.5-2.6-1.6-1-.9-1.6-2-1.8-2.3-.2-.3 0-.5.1-.6.1-.1.3-.4.5-.5.2-.2.2-.3.3-.5.1-.2.1-.4 0-.5-.1-.2-.7-1.7-1-2.3-.3-.6-.5-.5-.7-.5h-.6c-.2 0-.5.1-.8.4-.3.3-1 1-1 2.4s1 2.8 1.1 3c.2.2 2 3.1 4.9 4.3.7.3 1.2.5 1.6.6.7.2 1.3.2 1.8.1.5-.1 1.7-.7 1.9-1.3.2-.7.2-1.2.2-1.3 0-.2-.3-.3-.6-.4z"/>
</svg>
